<svg xmlns="http://www.w3.org/2000/svg" viewBox="0 0 496.98 54.96"><defs><style>.cls-1{fill:#fff;}</style></defs><title>sg-logo-header</title><g id="Layer_2" data-name="Layer 2"><g id="Assets"><g id="logo-header"><path class="cls-1" d="M6.63,39.83a11.24,11.24,0,0,1-4.81-3.74A9.81,9.81,0,0,1,0,30.32H7.8a5,5,0,0,0,1.59,3.53,5.59,5.59,0,0,0,3.92,1.3,6.08,6.08,0,0,0,4-1.22,4,4,0,0,0,1.45-3.2,3.69,3.69,0,0,0-1-2.65,6.89,6.89,0,0,0-2.47-1.64,39,39,0,0,0-4.08-1.32,44.11,44.11,0,0,1-5.74-2.06A10,10,0,0,1,1.69,20,8.71,8.71,0,0,1,.1,14.51,9.8,9.8,0,0,1,1.72,8.89,10.25,10.25,0,0,1,6.24,5.23,16.45,16.45,0,0,1,12.9,4,14.43,14.43,0,0,1,22,6.68,10.15,10.15,0,0,1,25.9,14.3h-8a4.14,4.14,0,0,0-1.59-3.09A5.94,5.94,0,0,0,12.38,10,5,5,0,0,0,9,11.08,3.92,3.92,0,0,0,7.7,14.25a3.3,3.3,0,0,0,1,2.42,7.39,7.39,0,0,0,2.39,1.56c.95.4,2.3.85,4,1.37a43.51,43.51,0,0,1,5.77,2.08A10.47,10.47,0,0,1,24.7,24.8a8.71,8.71,0,0,1,1.61,5.46,10.2,10.2,0,0,1-1.51,5.41,10.54,10.54,0,0,1-4.42,4,15,15,0,0,1-6.91,1.48A17.2,17.2,0,0,1,6.63,39.83Z"/><path class="cls-1" d="M41.08,17.94V31.88a2.73,2.73,0,0,0,.7,2.1,3.43,3.43,0,0,0,2.37.65h3.38v6.14H43q-9.2,0-9.2-9V17.94H30.32V12h3.43V4.84h7.33V12h6.45v6Z"/><path class="cls-1" d="M58.08,39.39a13.2,13.2,0,0,1-5.22-5.23,15.59,15.59,0,0,1-1.9-7.8,15.36,15.36,0,0,1,1.95-7.8,13.51,13.51,0,0,1,5.33-5.22,16.29,16.29,0,0,1,15.08,0,13.58,13.58,0,0,1,5.33,5.22,15.36,15.36,0,0,1,1.95,7.8,15,15,0,0,1-2,7.8,13.87,13.87,0,0,1-5.41,5.23,15.74,15.74,0,0,1-7.62,1.85A15.2,15.2,0,0,1,58.08,39.39Zm11.21-5.46A6.93,6.93,0,0,0,72.07,31a9.75,9.75,0,0,0,1-4.68A8.7,8.7,0,0,0,71,20a7.1,7.1,0,0,0-5.28-2.2A6.91,6.91,0,0,0,60.45,20a8.81,8.81,0,0,0-2.11,6.32,8.94,8.94,0,0,0,2.06,6.32,6.73,6.73,0,0,0,5.17,2.21A7.58,7.58,0,0,0,69.29,33.93Z"/><path class="cls-1" d="M130.29,14.79q3.24,3.26,3.25,9.08v16.9h-7.29V24.86a7.22,7.22,0,0,0-1.71-5.18,6.21,6.21,0,0,0-4.68-1.79,6.28,6.28,0,0,0-4.71,1.79,7.15,7.15,0,0,0-1.74,5.18V40.77h-7.28V24.86a7.18,7.18,0,0,0-1.72-5.18,6.18,6.18,0,0,0-4.68-1.79A6.33,6.33,0,0,0,95,19.68a7.11,7.11,0,0,0-1.75,5.18V40.77H86V12h7.28v3.48a9.87,9.87,0,0,1,3.62-2.86,11.3,11.3,0,0,1,4.86-1,12.55,12.55,0,0,1,6,1.43,10.06,10.06,0,0,1,4.11,4.09,10.49,10.49,0,0,1,4.08-4,12.49,12.49,0,0,1,14.36,1.74Z"/><path class="cls-1" d="M151.6,12.82a11.7,11.7,0,0,1,5.65-1.33,12.64,12.64,0,0,1,6.68,1.82,12.85,12.85,0,0,1,4.73,5.18,16.6,16.6,0,0,1,1.74,7.77,17,17,0,0,1-1.74,7.83,13,13,0,0,1-4.73,5.27,12.34,12.34,0,0,1-6.68,1.88,11.68,11.68,0,0,1-5.59-1.3,11.89,11.89,0,0,1-3.93-3.28V54.5h-7.28V12h7.28v4.16A11.06,11.06,0,0,1,151.6,12.82Zm10.3,8.94a7.42,7.42,0,0,0-2.81-2.88,7.5,7.5,0,0,0-3.77-1,7.35,7.35,0,0,0-3.72,1,7.66,7.66,0,0,0-2.81,2.94,9.18,9.18,0,0,0-1.06,4.52,9.19,9.19,0,0,0,1.06,4.53,7.66,7.66,0,0,0,2.81,2.94,7.35,7.35,0,0,0,3.72,1,7.26,7.26,0,0,0,3.77-1,7.71,7.71,0,0,0,2.81-3A9.34,9.34,0,0,0,163,26.26,9.08,9.08,0,0,0,161.9,21.76Z"/><path class="cls-1" d="M176.2,7.31a4.05,4.05,0,0,1-1.27-3,4,4,0,0,1,1.27-3,4.81,4.81,0,0,1,6.4,0,4,4,0,0,1,1.27,3,4.05,4.05,0,0,1-1.27,3.05,4.81,4.81,0,0,1-6.4,0ZM183,12V40.77h-7.28V12Z"/><path class="cls-1" d="M214.45,14.79q3.17,3.26,3.17,9.08v16.9h-7.28V24.86a7.44,7.44,0,0,0-1.72-5.28,6.07,6.07,0,0,0-4.68-1.85,6.25,6.25,0,0,0-4.76,1.85,7.41,7.41,0,0,0-1.74,5.28V40.77h-7.28V12h7.28v3.59a10,10,0,0,1,3.72-2.94,11.51,11.51,0,0,1,5-1.07A11.14,11.14,0,0,1,214.45,14.79Z"/><path class="cls-1" d="M241.48,12.77a10.41,10.41,0,0,1,3.85,3.3V12h7.33V41a15.42,15.42,0,0,1-1.61,7.15,12,12,0,0,1-4.83,5,15.47,15.47,0,0,1-7.8,1.84,16.62,16.62,0,0,1-10.06-2.86,10.58,10.58,0,0,1-4.45-7.8h7.23a5.36,5.36,0,0,0,2.47,3.15,8.59,8.59,0,0,0,4.6,1.17,7.12,7.12,0,0,0,5.15-1.9c1.31-1.26,2-3.18,2-5.74V36.5a10.87,10.87,0,0,1-3.87,3.38,11.48,11.48,0,0,1-5.64,1.36,12.37,12.37,0,0,1-6.66-1.88,13,13,0,0,1-4.76-5.27,17,17,0,0,1-1.74-7.83,16.72,16.72,0,0,1,1.74-7.75,12.84,12.84,0,0,1,4.73-5.2,12.68,12.68,0,0,1,6.69-1.82A12,12,0,0,1,241.48,12.77Zm2.81,9a7.36,7.36,0,0,0-2.81-2.91,7.52,7.52,0,0,0-3.79-1,7.34,7.34,0,0,0-3.74,1,7.44,7.44,0,0,0-2.79,2.88,9.08,9.08,0,0,0-1.06,4.5,9.35,9.35,0,0,0,1.06,4.55,7.66,7.66,0,0,0,2.81,3,7.16,7.16,0,0,0,3.72,1,7.52,7.52,0,0,0,3.79-1,7.32,7.32,0,0,0,2.81-2.92,9.24,9.24,0,0,0,1-4.55A9.3,9.3,0,0,0,244.29,21.81Z"/><path d="M331.26,15.39a8.58,8.58,0,0,0-3.43-3.48,10.45,10.45,0,0,0-5.1-1.2A11.14,11.14,0,0,0,317,12.17a10.12,10.12,0,0,0-3.9,4.16,13.29,13.29,0,0,0-1.4,6.24,13.3,13.3,0,0,0,1.43,6.34,10.15,10.15,0,0,0,4,4.16A11.77,11.77,0,0,0,323,34.53a10.29,10.29,0,0,0,6.81-2.21,10.6,10.6,0,0,0,3.49-6.16H320.86V20.59h19.65v6.35a16.92,16.92,0,0,1-3.12,7,17.49,17.49,0,0,1-6.16,5.17,18.11,18.11,0,0,1-8.45,1.95,19.12,19.12,0,0,1-9.49-2.37,17.21,17.21,0,0,1-6.65-6.57,18.81,18.81,0,0,1-2.42-9.57,19,19,0,0,1,2.42-9.6,17.21,17.21,0,0,1,6.65-6.6,20.26,20.26,0,0,1,20.1.62,15.28,15.28,0,0,1,6.24,8.4Z"/><path d="M356.87,12.84a10.26,10.26,0,0,1,5.17-1.3v7.65h-1.92a7.41,7.41,0,0,0-5.18,1.61q-1.74,1.62-1.74,5.62V40.77h-7.28V12h7.28v4.47A10.34,10.34,0,0,1,356.87,12.84Z"/><path d="M372.23,39.39A13.2,13.2,0,0,1,367,34.16a15.59,15.59,0,0,1-1.9-7.8,15.36,15.36,0,0,1,1.95-7.8,13.51,13.51,0,0,1,5.33-5.22,16.29,16.29,0,0,1,15.08,0,13.58,13.58,0,0,1,5.33,5.22,15.36,15.36,0,0,1,1.95,7.8,15,15,0,0,1-2,7.8,13.87,13.87,0,0,1-5.41,5.23,15.74,15.74,0,0,1-7.62,1.85A15.2,15.2,0,0,1,372.23,39.39Zm11.21-5.46A6.93,6.93,0,0,0,386.22,31a9.75,9.75,0,0,0,1-4.68A8.7,8.7,0,0,0,385.1,20a7.1,7.1,0,0,0-5.28-2.2A6.91,6.91,0,0,0,374.6,20a8.81,8.81,0,0,0-2.11,6.32,8.94,8.94,0,0,0,2.06,6.32,6.73,6.73,0,0,0,5.17,2.21A7.58,7.58,0,0,0,383.44,33.93Z"/><path d="M427.3,12V40.77H420V37.13a9.62,9.62,0,0,1-3.67,2.94,11.37,11.37,0,0,1-4.91,1.06,12.11,12.11,0,0,1-6-1.43,10,10,0,0,1-4.08-4.21,13.9,13.9,0,0,1-1.49-6.63V12h7.28V27.82a7.49,7.49,0,0,0,1.72,5.28,6.06,6.06,0,0,0,4.68,1.84,6.13,6.13,0,0,0,4.73-1.84A7.44,7.44,0,0,0,420,27.82V12Z"/><path d="M458.76,14.79q3.17,3.26,3.17,9.08v16.9h-7.28V24.86a7.49,7.49,0,0,0-1.71-5.28,6.1,6.1,0,0,0-4.68-1.85,6.24,6.24,0,0,0-4.76,1.85,7.41,7.41,0,0,0-1.74,5.28V40.77h-7.28V12h7.28v3.59a10.07,10.07,0,0,1,3.71-2.94,11.55,11.55,0,0,1,5-1.07A11.14,11.14,0,0,1,458.76,14.79Z"/><path d="M468.72,18.51a12.56,12.56,0,0,1,11.46-7,12.3,12.3,0,0,1,5.36,1.22A10.82,10.82,0,0,1,489.6,16V2.29H497V40.77H489.6V36.5a9.91,9.91,0,0,1-3.8,3.44,12,12,0,0,1-5.67,1.3,12.33,12.33,0,0,1-6.65-1.88,12.9,12.9,0,0,1-4.76-5.27A17,17,0,0,1,467,26.26,16.72,16.72,0,0,1,468.72,18.51Zm19.89,3.3a7.43,7.43,0,0,0-2.81-2.91,7.56,7.56,0,0,0-3.8-1,7.34,7.34,0,0,0-3.74,1,7.49,7.49,0,0,0-2.78,2.88,9.08,9.08,0,0,0-1.07,4.5,9.36,9.36,0,0,0,1.07,4.55,7.59,7.59,0,0,0,2.81,3,7.15,7.15,0,0,0,3.71,1,7.56,7.56,0,0,0,3.8-1,7.39,7.39,0,0,0,2.81-2.92,9.36,9.36,0,0,0,1-4.55A9.41,9.41,0,0,0,488.61,21.81Z"/><path d="M279.15,37.18c-1.77,1.43-3.44,2.82-5.16,4.15a1,1,0,0,1-.95-.19,54.5,54.5,0,0,1-4.13-4.48,14.72,14.72,0,0,1-3.26-7,13.8,13.8,0,0,1,.05-3.21c.29-2.75,4.29-5.23,7.19-2.55a12.63,12.63,0,0,1,3.7,6.48C277.17,32.67,277.66,35.05,279.15,37.18Z"/><path d="M275.51,43.49c1.69-1.39,3.2-2.65,4.74-3.87a.84.84,0,0,1,.8,0,44.16,44.16,0,0,1,3.14,3.13,2.44,2.44,0,0,1-.16,3.53,3.6,3.6,0,0,1-5.28.39C277.64,45.74,276.65,44.63,275.51,43.49Z"/><path d="M290.5,45.22c-.75-3-2.78-5.24-4.29-7.78a10.22,10.22,0,0,1-1.52-6.17,4.27,4.27,0,0,1,5.67-3.69,8.08,8.08,0,0,1,4.32,3.77,23.5,23.5,0,0,1,2.86,11.73c0,.74-.23,1.06-1,1.16C294.53,44.5,292.57,44.87,290.5,45.22Z"/><path d="M297.65,46.67a48.59,48.59,0,0,1,.17,5,3.69,3.69,0,0,1-4.73,3.09,2.41,2.41,0,0,1-1.8-2.23c-.14-1.42-.19-2.84-.22-4.26,0-.21.22-.59.39-.62C293.45,47.34,295.46,47,297.65,46.67Z"/><path d="M278,16.31c-1.83-2.5-4.55-3.82-6.91-5.6a10.22,10.22,0,0,1-3.72-5.14A4.27,4.27,0,0,1,271.19,0a8.09,8.09,0,0,1,5.42,1.88,23.54,23.54,0,0,1,7.05,9.79,1,1,0,0,1-.51,1.46C281.41,14.12,279.73,15.21,278,16.31Z"/><path d="M285.11,15a47,47,0,0,1,2.06,4.62,3.71,3.71,0,0,1-3.23,4.65,2.42,2.42,0,0,1-2.5-1.4c-.67-1.26-1.24-2.56-1.81-3.87a.75.75,0,0,1,.13-.71C281.47,17.16,283.21,16.12,285.11,15Z"/></g></g></g></svg>